<svg width="16" height="4" viewBox="0 0 16 4" fill="none" xmlns="http://www.w3.org/2000/svg">
<path d="M2.1429 2.57143C1.82731 2.57143 1.57147 2.31559 1.57147 2C1.57147 1.68441 1.82731 1.42857 2.1429 1.42857" stroke="#5C5F6A" stroke-width="1.8" stroke-linecap="round" stroke-linejoin="round"/>
<path d="M2.1429 2.57143C2.45849 2.57143 2.71433 2.31559 2.71433 2C2.71433 1.68441 2.45849 1.42857 2.1429 1.42857" stroke="#5C5F6A" stroke-width="1.8" stroke-linecap="round" stroke-linejoin="round"/>
<path d="M8.00004 2.57143C7.68446 2.57143 7.42862 2.31559 7.42862 2C7.42862 1.68441 7.68446 1.42857 8.00004 1.42857" stroke="#5C5F6A" stroke-width="1.8" stroke-linecap="round" stroke-linejoin="round"/>
<path d="M8.00004 2.57143C8.31563 2.57143 8.57147 2.31559 8.57147 2C8.57147 1.68441 8.31563 1.42857 8.00004 1.42857" stroke="#5C5F6A" stroke-width="1.8" stroke-linecap="round" stroke-linejoin="round"/>
<path d="M13.8571 2.57143C13.5415 2.57143 13.2857 2.31559 13.2857 2C13.2857 1.68441 13.5415 1.42857 13.8571 1.42857" stroke="#5C5F6A" stroke-width="1.8" stroke-linecap="round" stroke-linejoin="round"/>
<path d="M13.8571 2.57143C14.1728 2.57143 14.4286 2.31559 14.4286 2C14.4286 1.68441 14.1728 1.42857 13.8571 1.42857" stroke="#5C5F6A" stroke-width="1.8" stroke-linecap="round" stroke-linejoin="round"/>
</svg>
